<svg xmlns="http://www.w3.org/2000/svg" xmlns:xlink="http://www.w3.org/1999/xlink" id="Layer_2" version="1.1" viewBox="0 0 829.8 30"><defs><style>.st0{fill:#858392}.st1{fill:url(#linear-gradient)}.st2{fill:#fffaf1}</style><linearGradient id="linear-gradient" x1="65.4" x2="564.9" y1="14.8" y2="14.8" gradientTransform="translate(0 32) scale(1 -1)" gradientUnits="userSpaceOnUse"><stop offset="0" stop-color="#6b50ff"/><stop offset="1" stop-color="#ff6daa"/></linearGradient></defs><g><path d="M738,22.7c1.2,0,2.2-.5,3.1-1.2.5-.4,1-.3,1.2.2,0,.2,0,.4,0,.6,0,2.2-1.8,4.8-6.2,4.8s-6.1-1.6-5.7-6.5l.4-4.9c.3-3.1,1.4-5.7,3.7-7.2,1.2-.8,2.7-1.2,4.6-1.2,2.9,0,3.8,1.2,3.8,2.4s-.4,1.6-1,2.1c0,0-.2,0-.3,0-.5,0-1-.1-1.5-.1-1.1,0-2,.2-2.7.9-.6.5-1,1.4-1.1,2.5l-.5,5.1c-.1,1.4.3,2.5,2,2.5h0Z" class="st2"/><path d="M759,11.5l-1.1,12.4c0,1-.4,1.8-1.2,2.3-1.1.7-2.2,1-3.2,1s-1.4-.6-1.4-1.3l1.1-12.4c0-.7-.1-1-.7-1s-.9.1-1.2.3c-.6.3-.8.7-.9,1.3l-.9,9.9c0,1.1-.6,1.8-1.3,2.3-1,.7-2.2.9-3.1.9s-1.3-.6-1.2-1.6l1.9-22.2c0-1,.4-1.9,1.2-2.4,1.1-.6,2.2-.9,3.2-.9s1.5.5,1.4,1.2c0,0-.8,8.1-.8,8.2,0,.1.2.4.4.1.3-.4.9-1,1.4-1.3.9-.6,1.9-.9,3-.9,2.4,0,3.6,1.3,3.3,4.2h0Z" class="st2"/><path d="M788.2,12.3c0,.1-.3.4-.5.3-.5-.1-1-.1-1.4-.1-1.8,0-3.2,1.1-3.3,2.9l-.7,8.5c0,1.1-.6,1.8-1.3,2.3-1,.7-2.2.9-3.1.9s-1.3-.6-1.2-1.6l1.3-14.9c0-1,.4-1.9,1.2-2.4,1.1-.6,2.1-.9,3.1-.9s1.3.5,1.3,1.2v1.3c-.1,0-.1.2,0,.2s.2-.1.3-.2c.5-1.2,1.6-2.5,3.3-2.5s2,.9,2,2.1-.3,1.9-.8,2.9h0Z" class="st2"/><path d="M810.1,26.1c-1.1.7-2.2,1-3.2,1s-1.4-.6-1.4-1.3l1.1-12.9c0-.7,0-1-.6-1s-.8.1-1.1.3c-.5.3-.8.8-.9,1.3l-.9,10.3c0,1-.4,1.8-1.2,2.3-1.1.7-2.2,1-3.2,1s-1.4-.6-1.4-1.3l1.1-12.9c0-.7,0-1-.6-1s-.9.1-1.1.3c-.6.3-.8.7-.9,1.3l-.9,10.5c0,1.1-.6,1.8-1.3,2.3-1,.7-2.2.9-3.1.9s-1.3-.6-1.2-1.6l1.3-14.9c0-1,.4-1.9,1.2-2.4,1.1-.6,2.1-.9,3.1-.9s1.3.5,1.3,1.2c0,0,0,.7,0,.9,0,.2.2.3.4.1.2-.2.7-.8,1-1,1-.8,2.1-1.2,3.4-1.2,2.2,0,2.9,1,3.2,2.1,0,.2.3.2.4,0,.2-.2.8-.8,1.2-1.1,1-.7,2.1-1.1,3.3-1.1,2.4,0,3.5,1.3,3.3,4.2l-1.1,12.4c0,1-.4,1.8-1.2,2.3h0Z" class="st2"/><path d="M824.4,30h-11.1c-.8,0-1.4-.4-1.4-1.3,0-1.6.5-2.6,1.7-2.6h11.1c.9,0,1.4.4,1.4,1.3,0,1.6-.5,2.6-1.7,2.6h0Z" class="st2"/><path d="M773.8,7.6c-.7-.2-1.9-.3-3.2-.3-2.5,0-4.6.8-6.3,1.9-1.8,1.3-3,3.2-3.3,6.6l-.5,5.8c-.2,2.8.7,5.5,3.8,5.5s2.7-.7,3.4-1.5c.3-.3.5-.7.7-1s.4-.2.4.1c0,.3-.1,1.2-.1,1.2,0,.7.3,1.2,1.3,1.2s1.9-.3,3-1c.8-.5,1.1-1.2,1.2-2.3l1.2-14.4c0-.9-.2-1.4-1.6-1.8h0ZM768.8,21.4c0,.5-.3.9-.6,1.2-.3.2-.7.4-1.1.4-.7,0-1.1-.4-1-1.3l.7-7.6c0-.8.3-1.5.7-1.9.4-.5.9-.7,1.6-.7s.6,0,.7,0l-.9,10h0Z" class="st2"/><path d="M826,23h1.5v.4h-.6v1.6h-.4v-1.6h-.5v-.4ZM827.8,23h.5l.5,1.5.5-1.5h.5v2h-.4v-.4c0-.2,0-.5,0-.8l-.4,1.1h-.4l-.4-1.1c0,.3,0,.5,0,.8v.4h-.4v-2h0Z" class="st2"/></g><g><path d="M4.6,22.6c0-.2-.1-.3-.2-.5,0-.1-.2-.3-.3-.4s-.3-.2-.4-.2c-.2,0-.3,0-.5,0-.3,0-.7,0-.9.3s-.5.4-.6.8-.2.8-.2,1.2,0,.9.2,1.3c.2.3.4.6.6.8s.6.3,1,.3.6,0,.9-.2c.2-.1.4-.3.6-.5.1-.2.2-.5.2-.8h.3s-1.8,0-1.8,0v-.9h2.7v.8c0,.6-.1,1-.4,1.5s-.6.7-1,.9-.9.3-1.4.3-1.1-.1-1.6-.4-.8-.7-1.1-1.2c-.2-.5-.4-1.1-.4-1.8s0-1,.2-1.4c.1-.4.4-.8.6-1.1.3-.3.6-.5.9-.7.4-.1.8-.2,1.2-.2s.7,0,1,.2.6.2.8.5c.2.2.4.4.6.7s.3.6.3.9h-1.2Z" class="st0"/><path d="M9.1,27.2c-.5,0-.9-.1-1.3-.3-.4-.2-.6-.5-.8-.9s-.3-.8-.3-1.3,0-1,.3-1.3.5-.7.8-.9.8-.3,1.2-.3.6,0,.9.1c.3.1.5.2.7.5s.4.5.5.8c.1.3.2.7.2,1.1v.4h-4v-.8h2.9c0-.2,0-.4-.1-.6s-.2-.3-.4-.4-.4-.1-.6-.1-.4,0-.6.2-.3.3-.4.5-.2.4-.2.6v.7c0,.3,0,.5.2.7.1.2.2.4.4.5s.4.2.7.2.3,0,.5,0,.2-.1.4-.2c.1,0,.2-.2.2-.4h1.1c0,.4-.2.7-.4.9-.2.2-.4.4-.7.5-.3.1-.6.2-1,.2h0Z" class="st0"/><path d="M13.4,24.2v2.9h-1.2v-4.9h1.1v.8h0c.1-.3.3-.5.5-.7.2-.2.6-.2.9-.2s.6,0,.9.2c.2.1.5.4.6.6.1.3.2.6.2,1v3.1h-1.2v-3c0-.3,0-.6-.2-.8s-.4-.3-.7-.3-.4,0-.5.1c-.2,0-.3.2-.4.4,0,.2-.1.4-.1.6h0Z" class="st0"/><path d="M19.9,27.2c-.5,0-.9-.1-1.3-.3-.4-.2-.6-.5-.8-.9s-.3-.8-.3-1.3.1-1,.3-1.3.5-.7.8-.9.8-.3,1.2-.3.6,0,.9.1.5.2.7.5.4.5.5.8c.1.3.2.7.2,1.1v.4h-4v-.8h2.9c0-.2,0-.4-.1-.6s-.2-.3-.4-.4-.4-.1-.6-.1-.4,0-.6.2-.3.3-.4.5-.1.4-.1.6v.7c0,.3,0,.5.2.7.1.2.2.4.4.5s.4.2.7.2.3,0,.5,0,.2-.1.4-.2c.1,0,.2-.2.2-.4h1.1c0,.4-.2.7-.4.9-.2.2-.4.4-.7.5-.3.1-.6.2-1,.2h0Z" class="st0"/><path d="M23.1,27.1v-4.9h1.1v.8h0c0-.3.2-.5.5-.7.2-.1.5-.2.8-.2h.2c0,0,.1,0,.2,0v1.1s-.1,0-.2,0-.2,0-.3,0c-.2,0-.4,0-.6.1-.2,0-.3.2-.4.4s-.1.3-.1.5v2.9h-1.2,0Z" class="st0"/><path d="M28,27.2c-.3,0-.6,0-.8-.2s-.4-.3-.6-.5c-.1-.2-.2-.5-.2-.8s0-.5.1-.7.2-.3.4-.4c.2-.1.4-.2.6-.2s.5-.1.7-.1c.3,0,.5,0,.7,0s.3,0,.4-.1c0,0,.1-.1.1-.2h0c0-.3,0-.5-.2-.6s-.4-.2-.6-.2-.5,0-.7.2-.3.3-.3.4h-1.1c0-.4.2-.7.4-.9.2-.2.4-.4.7-.5s.6-.1.9-.1.5,0,.7,0c.2,0,.5.1.6.3.2.1.4.3.5.5.1.2.2.5.2.8v3.3h-1.1v-.7h0c0,.1-.2.3-.3.4-.1.1-.3.2-.5.3-.2,0-.4.1-.7.1h0ZM28.3,26.3c.2,0,.4,0,.6-.1s.3-.2.4-.4c0-.1.1-.3.1-.5v-.6s-.1,0-.2,0c0,0-.2,0-.3,0s-.2,0-.3,0c-.1,0-.2,0-.3,0-.2,0-.3,0-.5.1-.1,0-.2.1-.3.2s-.1.2-.1.4,0,.4.2.5c.2.1.4.2.6.2h0Z" class="st0"/><path d="M34.2,22.2v.9h-2.8v-.9h2.8ZM32,21h1.2v4.6c0,.2,0,.3,0,.4s.1.1.2.2c0,0,.2,0,.3,0s.1,0,.2,0,.1,0,.1,0l.2.9c0,0-.2,0-.3,0s-.2,0-.4,0c-.3,0-.5,0-.8-.1-.2-.1-.4-.2-.5-.5-.1-.2-.2-.5-.2-.8v-4.8h0Z" class="st0"/><path d="M37.3,27.2c-.5,0-.9-.1-1.3-.3-.4-.2-.6-.5-.8-.9s-.3-.8-.3-1.3,0-1,.3-1.3.5-.7.8-.9c.3-.2.8-.3,1.2-.3s.6,0,.9.1.5.2.7.5c.2.2.4.5.5.8.1.3.2.7.2,1.1v.4h-4v-.8h2.9c0-.2,0-.4-.1-.6s-.2-.3-.4-.4-.4-.1-.6-.1-.4,0-.6.2-.3.3-.4.5-.2.4-.2.6v.7c0,.3,0,.5.2.7,0,.2.2.4.4.5s.4.2.7.2.3,0,.5,0,.2-.1.3-.2c0,0,.2-.2.2-.4h1.1c0,.4-.2.7-.4.9-.2.2-.4.4-.7.5-.3.1-.6.2-1,.2h0Z" class="st0"/><path d="M42.2,27.2c-.4,0-.7-.1-1-.3s-.5-.5-.7-.9c-.2-.4-.3-.8-.3-1.4s0-1,.3-1.4.4-.7.7-.9.7-.3,1-.3.5,0,.7.1.3.2.4.4c.1.1.2.3.2.4h0v-2.5h1.2v6.5h-1.1v-.8h0c0,.1-.2.2-.3.4-.1.1-.3.2-.5.3-.2,0-.4.1-.7.1h0ZM42.6,26.2c.2,0,.5,0,.6-.2.2-.1.3-.3.4-.6s.1-.5.1-.8,0-.6-.1-.8-.2-.4-.4-.5-.4-.2-.6-.2-.5,0-.7.2c-.2.1-.3.3-.4.6s-.1.5-.1.8,0,.6.1.8.2.4.4.6.4.2.6.2h0Z" class="st0"/><path d="M48.4,27.1v-6.5h1.2v2.5h0c0-.1.1-.2.2-.4s.3-.2.4-.4c.2-.1.4-.1.7-.1s.7.1,1,.3c.3.2.5.5.7.9s.3.8.3,1.4,0,1-.3,1.4c-.2.4-.4.7-.7.9-.3.2-.7.3-1,.3s-.5,0-.7-.1c-.2,0-.3-.2-.5-.3-.1-.1-.2-.3-.3-.4h0v.8h-1.1,0ZM49.5,24.6c0,.3,0,.6.1.8,0,.2.2.4.4.6.2.1.4.2.6.2s.5,0,.6-.2.3-.3.4-.6.1-.5.1-.8,0-.6-.1-.8-.2-.4-.4-.6c-.2-.1-.4-.2-.7-.2s-.5,0-.6.2c-.2.1-.3.3-.4.5s-.1.5-.1.8h0Z" class="st0"/><path d="M54.5,28.9c-.2,0-.3,0-.4,0-.1,0-.2,0-.3,0l.3-.9c.2,0,.3,0,.5,0s.2,0,.3-.1.2-.2.3-.4v-.3c0,0-1.7-5-1.7-5h1.2l1.1,3.7h0l1.1-3.7h1.2l-2,5.5c0,.3-.2.5-.4.7s-.3.3-.5.4c-.2.1-.5.1-.8.1h0Z" class="st0"/></g><path d="M231.6,27.3l11.2-20.3h.8l-11.2,20.3h-.8ZM236.2,27.3l11.2-20.3h-.8l-11.2,20.3h.8ZM240,27.3l11.2-20.3h-.8l-11.2,20.3h.8ZM243.8,27.3l11.2-20.3h-.8l-11.2,20.3h.8ZM247.6,27.3l11.2-20.3h-.8l-11.2,20.3h.8ZM251.4,27.3l11.2-20.3h-.8l-11.2,20.3h.8ZM255.2,27.3l11.2-20.3h-.8l-11.2,20.3h.8ZM259,27.3l11.2-20.3h-.8l-11.2,20.3h.8ZM262.8,27.3l11.2-20.3h-.8l-11.2,20.3h.8ZM266.6,27.3l11.2-20.3h-.8l-11.2,20.3h.8ZM270.4,27.3l11.2-20.3h-.8l-11.2,20.3h.8ZM274.2,27.3l11.2-20.3h-.8l-11.2,20.3h.8ZM278,27.3l11.2-20.3h-.8l-11.2,20.3h.8ZM281.8,27.3l11.2-20.3h-.8l-11.2,20.3h.8ZM285.6,27.3l11.2-20.3h-.8l-11.2,20.3h.8ZM289.4,27.3l11.2-20.3h-.8l-11.2,20.3h.8ZM293.2,27.3l11.2-20.3h-.8l-11.2,20.3h.8ZM297,27.3l11.2-20.3h-.8l-11.2,20.3h.8ZM300.8,27.3l11.2-20.3h-.8l-11.2,20.3h.8ZM304.6,27.3l11.2-20.3h-.8l-11.2,20.3h.8ZM308.4,27.3l11.2-20.3h-.8l-11.2,20.3h.8ZM312.1,27.3l11.2-20.3h-.8l-11.2,20.3h.8ZM316,27.3l11.2-20.3h-.8l-11.2,20.3h.8ZM319.8,27.3l11.2-20.3h-.8l-11.2,20.3h.8ZM323.5,27.3l11.2-20.3h-.8l-11.2,20.3h.8ZM327.3,27.3l11.2-20.3h-.8l-11.2,20.3h.8ZM331.1,27.3l11.2-20.3h-.8l-11.2,20.3h.8ZM334.9,27.3l11.2-20.3h-.8l-11.2,20.3h.8ZM338.7,27.3l11.2-20.3h-.8l-11.2,20.3h.8ZM342.5,27.3l11.2-20.3h-.8l-11.2,20.3h.8ZM346.3,27.3l11.2-20.3h-.8l-11.2,20.3h.8ZM350.1,27.3l11.2-20.3h-.8l-11.2,20.3h.8ZM353.9,27.3l11.2-20.3h-.8l-11.2,20.3h.8ZM357.7,27.3l11.2-20.3h-.8l-11.2,20.3h.8ZM361.5,27.3l11.2-20.3h-.8l-11.2,20.3h.8ZM365.3,27.3l11.2-20.3h-.8l-11.2,20.3h.8ZM369.1,27.3l11.2-20.3h-.8l-11.2,20.3h.8ZM372.9,27.3l11.2-20.3h-.8l-11.2,20.3h.8ZM376.7,27.3l11.2-20.3h-.8l-11.2,20.3h.8ZM380.5,27.3l11.2-20.3h-.8l-11.2,20.3h.8ZM384.3,27.3l11.2-20.3h-.8l-11.2,20.3h.8ZM388.1,27.3l11.2-20.3h-.8l-11.2,20.3h.8ZM391.9,27.3l11.2-20.3h-.8l-11.2,20.3h.8ZM395.6,27.3l11.2-20.3h-.8l-11.2,20.3h.8ZM399.5,27.3l11.2-20.3h-.8l-11.2,20.3h.8ZM403.2,27.3l11.2-20.3h-.8l-11.2,20.3h.8ZM407,27.3l11.2-20.3h-.8l-11.2,20.3h.8ZM410.8,27.3l11.2-20.3h-.8l-11.2,20.3h.8ZM414.6,27.3l11.2-20.3h-.8l-11.2,20.3h.8ZM418.4,27.3l11.2-20.3h-.8l-11.2,20.3h.8ZM422.2,27.3l11.2-20.3h-.8l-11.2,20.3h.8ZM426,27.3l11.2-20.3h-.8l-11.2,20.3h.8ZM429.8,27.3l11.2-20.3h-.8l-11.2,20.3h.8ZM433.6,27.3l11.2-20.3h-.8l-11.2,20.3h.8ZM437.4,27.3l11.2-20.3h-.8l-11.2,20.3h.8ZM441.2,27.3l11.2-20.3h-.8l-11.2,20.3h.8ZM445,27.3l11.2-20.3h-.8l-11.2,20.3h.8ZM448.8,27.3l11.2-20.3h-.8l-11.2,20.3h.8ZM452.6,27.3l11.2-20.3h-.8l-11.2,20.3h.8ZM456.4,27.3l11.2-20.3h-.8l-11.2,20.3h.8ZM460.2,27.3l11.2-20.3h-.8l-11.2,20.3h.8ZM464,27.3l11.2-20.3h-.8l-11.2,20.3h.8ZM467.8,27.3l11.2-20.3h-.8l-11.2,20.3h.8ZM471.6,27.3l11.2-20.3h-.8l-11.2,20.3h.8ZM475.4,27.3l11.2-20.3h-.8l-11.2,20.3h.8ZM479.1,27.3l11.2-20.3h-.8l-11.2,20.3h.8ZM482.9,27.3l11.2-20.3h-.8l-11.2,20.3h.8ZM486.7,27.3l11.2-20.3h-.8l-11.2,20.3h.8ZM490.5,27.3l11.2-20.3h-.8l-11.2,20.3h.8ZM494.3,27.3l11.2-20.3h-.8l-11.2,20.3h.8ZM498.1,27.3l11.2-20.3h-.8l-11.2,20.3h.8ZM501.9,27.3l11.2-20.3h-.8l-11.2,20.3h.8ZM505.7,27.3l11.2-20.3h-.8l-11.2,20.3h.8ZM509.5,27.3l11.2-20.3h-.8l-11.2,20.3h.8ZM513.3,27.3l11.2-20.3h-.8l-11.2,20.3h.8ZM517.1,27.3l11.2-20.3h-.8l-11.2,20.3h.8ZM520.9,27.3l11.2-20.3h-.8l-11.2,20.3h.8ZM524.7,27.3l11.2-20.3h-.8l-11.2,20.3h.8ZM528.5,27.3l11.2-20.3h-.8l-11.2,20.3h.8ZM532.3,27.3l11.2-20.3h-.8l-11.2,20.3h.8ZM536.1,27.3l11.2-20.3h-.8l-11.2,20.3h.8ZM539.9,27.3l11.2-20.3h-.8l-11.2,20.3h.8ZM543.7,27.3l11.2-20.3h-.8l-11.2,20.3h.8ZM547.5,27.3l11.2-20.3h-.8l-11.2,20.3h.8ZM551.3,27.3l11.2-20.3h-.8l-11.2,20.3h.8ZM555,27.3l9.8-17.8v-1.5l-10.7,19.3h.8,0ZM558.8,27.3l6-10.9v-1.5l-6.9,12.4h.8,0ZM562.7,27.3l2.2-4v-1.5l-3.1,5.5h.8,0ZM228.7,27.3l11.2-20.3h-.8l-11.2,20.3h.8ZM224.9,27.3l11.2-20.3h-.8l-11.2,20.3h.8ZM221.1,27.3l11.2-20.3h-.8l-11.2,20.3h.8ZM217.3,27.3l11.2-20.3h-.8l-11.2,20.3h.8ZM213.5,27.3l11.2-20.3h-.8l-11.2,20.3h.8ZM209.7,27.3l11.2-20.3h-.8l-11.2,20.3h.8ZM205.9,27.3l11.2-20.3h-.8l-11.2,20.3h.8ZM202.1,27.3l11.2-20.3h-.8l-11.2,20.3h.8ZM198.3,27.3l11.2-20.3h-.8l-11.2,20.3h.8ZM194.5,27.3l11.2-20.3h-.8l-11.2,20.3h.8ZM190.7,27.3l11.2-20.3h-.8l-11.2,20.3h.8ZM197.3,7l-9.8,17.6v1.5l10.6-19.1s-.8,0-.8,0ZM193.5,7l-6,10.8v1.5l6.8-12.3h-.8,0ZM189.7,7l-2.2,3.9v1.5l3-5.4h-.8ZM138.4,23.3v4.1h16.2v-4.1h-16.2ZM158.7,7v4.1h-16.2v-4.1s16.2,0,16.2,0ZM138.4,11.1h4.1v4.1h16.2v8.1h-4.1v-4.1h-16.2s0-8.1,0-8.1ZM130.3,23.3v4.1h-12.2v-4.1h12.2ZM118.1,19.2v4.1h-4.1V7h4.1v12.2ZM130.3,7h4.1v16.2h-4.1V7ZM183.1,7v20.3h-4.1v-8.1h-12.2v8.1h-4.1V7h4.1v8.1h12.2V7h4.1ZM69.4,27.3v-4.1h16.2v4.1h-16.2ZM65.4,11.1h4.1v12.2h-4.1v-12.2ZM85.7,7v4.1h-16.2v-4.1s16.2,0,16.2,0ZM106,11.1h4.1v4.1h-4.1v-4.1ZM106,19.2h4.1v8.1h-4.1v-8.1ZM106,15.2v4.1h-12.2v8.1h-4.1V7h16.2v4.1h-12.2v4.1s12.2,0,12.2,0Z" class="st1"/><metadata/></svg>