<svg xmlns="http://www.w3.org/2000/svg" xmlns:xlink="http://www.w3.org/1999/xlink" id="Layer_2" version="1.1" viewBox="0 0 829.5 43"><defs><style>.st0{fill:url(#linear-gradient)!important}</style><linearGradient id="linear-gradient" x1="0" x2="829.5" y1="22.5" y2="22.5" gradientTransform="translate(0 44) scale(1 -1)" gradientUnits="userSpaceOnUse"><stop offset="0" stop-color="#6b50ff"/><stop offset="1" stop-color="#ff6daa"/></linearGradient></defs><g id="Header_WIP_copy"><path d="M70.2,36.9l-3.3,6h-1.3l4.6-8.2v2.3ZM70.2,24.4l-10.2,18.5h1.3l9-16.2v-2.3ZM70.2,14.1l-15.9,28.7h1.3l14.6-26.4s0-2.3,0-2.3ZM70.2,3.9l-21.5,38.9h1.3L70.2,6.2v-2.3ZM66.7,0l-23.7,42.8h1.3L68,0h-1.3ZM61,0l-23.7,42.8h1.3L62.3,0h-1.3ZM55.4,0l-23.7,42.8h1.3L56.6,0h-1.3ZM49.7,0l-23.7,42.8h1.3L51,0h-1.3ZM44.1,0l-23.7,42.8h1.3L45.3,0h-1.3ZM38.4,0L14.7,42.8h1.3L39.7,0h-1.3ZM32.7,0L9.1,42.8h1.3L34,0h-1.3ZM27.1,0L3.4,42.8h1.3L28.3,0h-1.3ZM21.4,0L0,38.7v2.3L22.7,0h-1.3ZM15.8,0L0,28.5v2.3L17,0h-1.3ZM10.1,0L0,18.3v2.3L11.4,0s-1.3,0-1.3,0ZM4.4,0L0,8v2.3L5.7,0s-1.3,0-1.3,0ZM351,0l-23.7,42.8h1.3L352.2,0h-1.3ZM356.7,0l-23.7,42.8h1.3L357.9,0h-1.3,0ZM362.4,0l-23.7,42.8h1.3L363.6,0h-1.3ZM368.1,0l-23.7,42.8h1.3L369.4,0h-1.3ZM373.8,0l-23.7,42.8h1.3L375,0h-1.3,0ZM379.5,0l-23.7,42.8h1.3L380.8,0h-1.3ZM385.2,0l-23.7,42.8h1.3L386.5,0h-1.3ZM390.9,0l-23.7,42.8h1.3L392.2,0h-1.3,0ZM396.6,0l-23.7,42.8h1.3L397.9,0h-1.3,0ZM402.3,0l-23.7,42.8h1.3L403.6,0h-1.3ZM408,0l-23.7,42.8h1.3L409.3,0h-1.3,0ZM413.8,0l-23.7,42.8h1.3L415,0h-1.3,0ZM419.5,0l-23.7,42.8h1.3L420.7,0h-1.3,0ZM425.2,0l-23.7,42.8h1.3L426.4,0h-1.3ZM430.9,0l-23.7,42.8h1.3L432.1,0h-1.3,0ZM436.6,0l-23.7,42.8h1.3L437.8,0h-1.3,0ZM442.3,0l-23.7,42.8h1.3L443.5,0h-1.3ZM448,0l-23.7,42.8h1.3L449.2,0h-1.3ZM453.7,0l-23.7,42.8h1.3L455,0h-1.3ZM459.4,0l-23.7,42.8h1.3L460.7,0h-1.3ZM465.1,0l-23.7,42.8h1.3L466.4,0h-1.3ZM470.8,0l-23.7,42.8h1.3L472.1,0h-1.3,0ZM476.5,0l-23.7,42.8h1.3L477.8,0h-1.3ZM482.2,0l-23.7,42.8h1.3L483.5,0h-1.3,0ZM487.9,0l-23.7,42.8h1.3L489.2,0h-1.3,0ZM493.6,0l-23.7,42.8h1.3L494.9,0h-1.3,0ZM499.4,0l-23.7,42.8h1.3L500.6,0h-1.3,0ZM505.1,0l-23.7,42.8h1.3L506.3,0h-1.3ZM510.8,0l-23.7,42.8h1.3L512,0h-1.3,0ZM516.5,0l-23.7,42.8h1.3L517.7,0h-1.3ZM522.2,0l-23.7,42.8h1.3L523.4,0h-1.3ZM527.9,0l-23.7,42.8h1.3L529.1,0h-1.3,0ZM533.6,0l-23.7,42.8h1.3L534.8,0h-1.3,0ZM539.3,0l-23.7,42.8h1.3L540.6,0h-1.3ZM545,0l-23.7,42.8h1.3L546.3,0h-1.3,0ZM550.7,0l-23.7,42.8h1.3L552,0h-1.3,0ZM556.4,0l-23.7,42.8h1.3L557.7,0h-1.3ZM562.1,0l-23.7,42.8h1.3L563.4,0h-1.3ZM567.8,0l-23.7,42.8h1.3L569.1,0h-1.3,0ZM573.5,0l-23.7,42.8h1.3L574.8,0h-1.3ZM579.2,0l-23.7,42.8h1.3L580.5,0h-1.3ZM585,0l-23.7,42.8h1.3L586.2,0h-1.3,0ZM590.7,0l-23.7,42.8h1.3L591.9,0h-1.3ZM596.4,0l-23.7,42.8h1.3L597.6,0h-1.3ZM602.1,0l-23.7,42.8h1.3L603.3,0h-1.3,0ZM607.8,0l-23.7,42.8h1.3L609,0h-1.3,0ZM613.5,0l-23.7,42.8h1.3L614.8,0h-1.3ZM619.2,0l-23.7,42.8h1.3L620.5,0h-1.3ZM624.9,0l-23.7,42.8h1.3L626.2,0h-1.3,0ZM630.6,0l-23.7,42.8h1.3L631.9,0h-1.3ZM636.3,0l-23.7,42.8h1.3L637.6,0h-1.3ZM642,0l-23.7,42.8h1.3L643.3,0h-1.3,0ZM647.7,0l-23.7,42.8h1.3L649,0h-1.3ZM653.4,0l-23.7,42.8h1.3L654.7,0h-1.3ZM659.2,0l-23.7,42.8h1.3L660.4,0h-1.3,0ZM664.9,0l-23.7,42.8h1.3L666.1,0h-1.3,0ZM670.6,0l-23.7,42.8h1.3L671.8,0h-1.3ZM676.3,0l-23.7,42.8h1.3L677.5,0h-1.3ZM682,0l-23.7,42.8h1.3L683.2,0h-1.3,0ZM687.7,0l-23.7,42.8h1.3L688.9,0h-1.3ZM693.4,0l-23.7,42.8h1.3L694.7,0h-1.3ZM699.1,0l-23.7,42.8h1.3L700.3,0h-1.3,0ZM704.8,0l-23.7,42.8h1.3L706.1,0h-1.3ZM710.5,0l-23.7,42.8h1.3L711.8,0h-1.3ZM716.2,0l-23.7,42.8h1.3L717.5,0h-1.3ZM721.9,0l-23.7,42.8h1.3L723.2,0h-1.3,0ZM727.6,0l-23.7,42.8h1.3L728.9,0h-1.3ZM733.3,0l-23.7,42.8h1.3L734.6,0h-1.3,0ZM739,0l-23.7,42.8h1.3L740.3,0h-1.3,0ZM744.8,0l-23.7,42.8h1.3L746,0h-1.3ZM750.5,0l-23.7,42.8h1.3L751.7,0h-1.3,0ZM756.2,0l-23.7,42.8h1.3L757.4,0h-1.3,0ZM761.9,0l-23.7,42.8h1.3L763.1,0h-1.3ZM767.6,0l-23.7,42.8h1.3L768.8,0h-1.3ZM773.3,0l-23.7,42.8h1.3L774.5,0h-1.3ZM779,0l-23.7,42.8h1.3L780.2,0h-1.3,0ZM784.7,0l-23.7,42.8h1.3L786,0h-1.3ZM790.4,0l-23.7,42.8h1.3L791.7,0h-1.3ZM796.1,0l-23.7,42.8h1.3L797.4,0h-1.3,0ZM801.8,0l-23.7,42.8h1.3L803.1,0h-1.3ZM807.5,0l-23.7,42.8h1.3L808.8,0h-1.3,0ZM813.2,0l-23.7,42.8h1.3L814.5,0h-1.3ZM818.9,0l-23.7,42.8h1.3L820.2,0h-1.3ZM824.7,0l-23.7,42.8h1.3L825.9,0h-1.3,0ZM829.5,1.6l-22.8,41.2h1.3l21.5-38.9V1.6h0ZM829.5,11.9l-17.1,30.9h1.3l15.8-28.6s0-2.3,0-2.3ZM829.5,22.3l-11.4,20.6h1.3l10.1-18.3v-2.3h0ZM829.5,32.6l-5.7,10.2h1.3l4.4-8v-2.3h0ZM345.3,0l-23.7,42.8h1.3L346.5,0h-1.3,0ZM339.6,0l-23.7,42.8h1.3L340.8,0h-1.3,0ZM333.9,0l-23.7,42.8h1.3L335.1,0h-1.3,0ZM328.1,0l-23.7,42.8h1.3L329.4,0h-1.3,0ZM322.4,0l-23.7,42.8h1.3L323.7,0h-1.3ZM316.7,0l-23.7,42.8h1.3L318,0h-1.3,0ZM311,0l-23.7,42.8h1.3L312.3,0h-1.3ZM305.3,0l-23.7,42.8h1.3L306.6,0h-1.3ZM299.6,0l-23.7,42.8h1.3L300.9,0h-1.3,0ZM293.9,0l-23.7,42.8h1.3L295.1,0h-1.3,0ZM288.2,0l-23.7,42.8h1.3L289.5,0h-1.3ZM282.5,0l-21.6,39v2.3L283.7,0h-1.3,0ZM276.8,0l-15.9,28.7v2.3L278,0h-1.3,0ZM271.1,0l-10.1,18.4v2.3L272.3,0s-1.3,0-1.3,0ZM265.4,0l-4.4,8v2.3L266.6,0s-1.3,0-1.3,0ZM83.3,43v-6.1h24.4v6.1h-24.4ZM119.9,24.7h18.3v6.1h-18.3v12.2h-6.1V12.5h24.4v6.1h-18.3v6.1ZM138.2,43v-12.2h6.1v12.2h-6.1ZM83.3,12.5h24.4v6.1h-24.4v-6.1ZM77.2,18.6h6.1v18.3h-6.1v-18.3ZM138.2,18.6h6.1v6.1h-6.1v-6.1ZM193.1,12.5h24.4v6.1h-24.4v-6.1ZM187.1,18.6h6.1v6.1h24.4v12.2h-6.1v-6.1h-24.4v-12.2ZM156.6,36.9h18.3v6.1h-18.3v-6.1ZM254.2,12.5v30.5h-6.1v-12.2h-18.3v12.2h-6.1V12.5h6.1v12.2h18.3v-12.2s6.1,0,6.1,0ZM156.6,30.8v6.1h-6.1V12.5h6.1v18.3h0ZM187.1,36.9h24.4v6.1h-24.4v-6.1ZM174.9,12.5h6.1v24.4h-6.1V12.5ZM86.8,6.6c.4-.4.6-.8.6-1.5h-.8c0,.4,0,.7-.3.9-.2.2-.5.3-.9.3s-.7-.1-.9-.3-.3-.5-.3-.9V2c0-.4.1-.7.3-.9s.5-.3.9-.3.7.1.9.3c.2.2.3.5.3.9h.8c0-.6-.2-1.1-.6-1.5s-.9-.5-1.5-.5-1.1.2-1.5.5-.6.8-.6,1.5v3.1c0,.6.2,1.1.6,1.5s.9.5,1.5.5,1.1-.2,1.5-.5h0ZM89.9,7v-3.3c0-.4,0-.7.3-.9s.5-.3.8-.3.6.1.8.3.3.5.3.9v3.4h.8v-3.5c0-.6-.2-1-.5-1.3s-.7-.5-1.2-.5-.7.1-1,.3c-.2.2-.4.5-.4.8h0V0h-.8v6.9h.8,0ZM97.3,6.8c.3-.2.4-.4.5-.8h0v.9h.8v-3.6c0-.5-.2-1-.5-1.3s-.8-.5-1.5-.5-1.1.1-1.4.4c-.3.3-.5.6-.6,1h.8c0-.2.1-.4.3-.5.2-.1.5-.2.8-.2.7,0,1.1.3,1.1,1v.4h-1.6c-.3,0-.6,0-.9.2-.3.1-.5.3-.6.6s-.2.5-.2.8c0,.5.2.9.5,1.2.3.3.7.4,1.3.4s.8,0,1.1-.3h0ZM95.6,6.1c-.2-.2-.3-.4-.3-.7s0-.5.3-.7.4-.2.7-.2h1.5v.7c0,.3-.1.6-.4.8-.2.2-.6.3-1,.3s-.6,0-.8-.2ZM101.4,7v-3.3c0-.4,0-.7.3-.9.2-.2.5-.3.8-.3.7,0,1.1.4,1.1,1.1v.4h.8v-.5c0-.6-.2-1.1-.4-1.4-.3-.3-.7-.5-1.3-.5s-.7.1-1,.3c-.2.2-.4.5-.4.8h0v-1h-.8v5.2h.9ZM106.6,7v-4c0-.2,0-.4.2-.5s.2-.2.4-.2.3,0,.4.2c0,.1.2.3.2.5v4h.7v-4c0-.2,0-.4.2-.5s.2-.2.4-.2.3,0,.4.2.2.3.2.5v4h.8v-4c0-.4,0-.7-.3-1s-.5-.4-.8-.4-.4,0-.6.2c-.2.1-.2.3-.3.5h0c0-.2-.2-.4-.3-.5-.2-.1-.3-.2-.6-.2s-.4,0-.6.2c-.2.2-.2.3-.3.6h0v-.7h-.7v5.2h.8,0ZM112.6,3.5V.6h.9V0h-2.5v.5h.9v2.9h.6ZM114.4,3.5V1.4c0-.2,0-.4,0-.6,0-.2,0-.3,0-.5,0,.1,0,.3.1.4s0,.3,0,.3l.3,1h.5l.3-1c0,0,0-.2,0-.3,0-.2,0-.3.1-.4,0,.1,0,.3,0,.5,0,.2,0,.4,0,.6v2.1h.5V0h-.7l-.3,1c0,0,0,.2,0,.3,0,.1,0,.2,0,.3,0,0,0-.2,0-.3s0-.2,0-.3l-.3-1h-.8v3.4h.5Z" class="st0"/></g><metadata/></svg>